<?xml version="1.0" encoding="UTF-8"?>
<svg width="100" height="100" viewBox="0 0 100 100" xmlns="http://www.w3.org/2000/svg">
  <path d="M50,50 C30,50 10,30 10,50 C10,70 30,90 50,90 C70,90 90,70 90,50 C90,30 70,50 50,50 Z" fill="#8cb369" />
  <path d="M50,50 C30,50 10,30 10,50 C10,70 30,90 50,90 C70,90 90,70 90,50 C90,30 70,50 50,50 Z" fill="none" stroke="#4a7856" stroke-width="2" />
  <path d="M50,10 L50,90" stroke="#4a7856" stroke-width="2" />
  <path d="M30,30 L70,70" stroke="#4a7856" stroke-width="2" />
  <path d="M70,30 L30,70" stroke="#4a7856" stroke-width="2" />
  <circle cx="50" cy="50" r="5" fill="#2d5a27" />
</svg> 