<?xml version="1.0" encoding="UTF-8"?>
<svg width="100" height="100" viewBox="0 0 100 100" xmlns="http://www.w3.org/2000/svg">
  <path d="M50,10 C30,10 10,30 10,50 C10,70 30,90 50,90 C70,90 90,70 90,50 C90,30 70,10 50,10 Z" fill="#4a7856" />
  <path d="M50,10 C30,10 10,30 10,50 C10,70 30,90 50,90 C70,90 90,70 90,50 C90,30 70,10 50,10 Z" fill="none" stroke="#2d5a27" stroke-width="2" />
  <path d="M50,10 L50,90" stroke="#2d5a27" stroke-width="2" />
  <path d="M30,30 L70,70" stroke="#2d5a27" stroke-width="2" />
  <path d="M70,30 L30,70" stroke="#2d5a27" stroke-width="2" />
</svg> 