<?xml version="1.0" encoding="UTF-8"?>
<svg width="100" height="200" viewBox="0 0 100 200" xmlns="http://www.w3.org/2000/svg">
  <path d="M50,0 C50,0 30,20 30,40 C30,60 50,80 50,80 C50,80 70,60 70,40 C70,20 50,0 50,0 Z" fill="#4a7856" />
  <path d="M50,80 C50,80 30,100 30,120 C30,140 50,160 50,160 C50,160 70,140 70,120 C70,100 50,80 50,80 Z" fill="#4a7856" />
  <path d="M50,160 C50,160 30,180 30,200 C30,200 50,200 50,200 C50,200 70,200 70,200 C70,180 50,160 50,160 Z" fill="#4a7856" />
  <path d="M50,0 L50,200" stroke="#2d5a27" stroke-width="2" />
</svg> 